<mxfile host="app.diagrams.net" modified="2022-01-27T23:17:49.167Z" agent="5.0 (Windows NT 10.0; Win64; x64) AppleWebKit/537.36 (KHTML, like Gecko) Chrome/97.0.4692.99 Safari/537.36" etag="fWLzUXAt6TUxFmDD0IKf" version="16.4.11" type="github">
  <diagram id="QbseE7Q6JabNHSI3tGWX" name="第 1 页">
    <mxGraphModel dx="656" dy="541" grid="1" gridSize="10" guides="1" tooltips="1" connect="1" arrows="1" fold="1" page="1" pageScale="1" pageWidth="827" pageHeight="1169" math="0" shadow="0">
      <root>
        <mxCell id="0" />
        <mxCell id="1" parent="0" />
        <mxCell id="kJeDoL9QqpUuYzQOLzHj-3" value="" style="edgeStyle=orthogonalEdgeStyle;rounded=0;orthogonalLoop=1;jettySize=auto;html=1;" edge="1" parent="1" source="kJeDoL9QqpUuYzQOLzHj-1" target="kJeDoL9QqpUuYzQOLzHj-2">
          <mxGeometry relative="1" as="geometry" />
        </mxCell>
        <mxCell id="kJeDoL9QqpUuYzQOLzHj-1" value="MTR" style="whiteSpace=wrap;html=1;" vertex="1" parent="1">
          <mxGeometry x="40" y="40" width="120" height="60" as="geometry" />
        </mxCell>
        <mxCell id="kJeDoL9QqpUuYzQOLzHj-5" value="" style="edgeStyle=orthogonalEdgeStyle;rounded=0;orthogonalLoop=1;jettySize=auto;html=1;" edge="1" parent="1" source="kJeDoL9QqpUuYzQOLzHj-2" target="kJeDoL9QqpUuYzQOLzHj-4">
          <mxGeometry relative="1" as="geometry" />
        </mxCell>
        <mxCell id="kJeDoL9QqpUuYzQOLzHj-2" value="MTChannelHandler类接收netty信息" style="whiteSpace=wrap;html=1;" vertex="1" parent="1">
          <mxGeometry x="40" y="140" width="120" height="60" as="geometry" />
        </mxCell>
        <mxCell id="kJeDoL9QqpUuYzQOLzHj-7" value="" style="edgeStyle=orthogonalEdgeStyle;rounded=0;orthogonalLoop=1;jettySize=auto;html=1;" edge="1" parent="1" source="kJeDoL9QqpUuYzQOLzHj-4" target="kJeDoL9QqpUuYzQOLzHj-6">
          <mxGeometry relative="1" as="geometry" />
        </mxCell>
        <mxCell id="kJeDoL9QqpUuYzQOLzHj-4" value="解码加密消息" style="whiteSpace=wrap;html=1;" vertex="1" parent="1">
          <mxGeometry x="40" y="230" width="120" height="60" as="geometry" />
        </mxCell>
        <mxCell id="kJeDoL9QqpUuYzQOLzHj-9" value="" style="edgeStyle=orthogonalEdgeStyle;rounded=0;orthogonalLoop=1;jettySize=auto;html=1;" edge="1" parent="1" source="kJeDoL9QqpUuYzQOLzHj-6" target="kJeDoL9QqpUuYzQOLzHj-8">
          <mxGeometry relative="1" as="geometry" />
        </mxCell>
        <mxCell id="kJeDoL9QqpUuYzQOLzHj-6" value="鉴权、检查连接合法性、IP是否可信任等" style="whiteSpace=wrap;html=1;" vertex="1" parent="1">
          <mxGeometry x="40" y="320" width="120" height="60" as="geometry" />
        </mxCell>
        <mxCell id="kJeDoL9QqpUuYzQOLzHj-11" value="" style="edgeStyle=orthogonalEdgeStyle;rounded=0;orthogonalLoop=1;jettySize=auto;html=1;" edge="1" parent="1" source="kJeDoL9QqpUuYzQOLzHj-8" target="kJeDoL9QqpUuYzQOLzHj-10">
          <mxGeometry relative="1" as="geometry" />
        </mxCell>
        <mxCell id="kJeDoL9QqpUuYzQOLzHj-8" value="过滤链" style="whiteSpace=wrap;html=1;" vertex="1" parent="1">
          <mxGeometry x="210" y="320" width="120" height="60" as="geometry" />
        </mxCell>
        <mxCell id="kJeDoL9QqpUuYzQOLzHj-13" value="" style="edgeStyle=orthogonalEdgeStyle;rounded=0;orthogonalLoop=1;jettySize=auto;html=1;" edge="1" parent="1" source="kJeDoL9QqpUuYzQOLzHj-10" target="kJeDoL9QqpUuYzQOLzHj-12">
          <mxGeometry relative="1" as="geometry" />
        </mxCell>
        <mxCell id="kJeDoL9QqpUuYzQOLzHj-10" value="将frame通过netty消息写入centrum" style="whiteSpace=wrap;html=1;" vertex="1" parent="1">
          <mxGeometry x="380" y="320" width="120" height="60" as="geometry" />
        </mxCell>
        <mxCell id="kJeDoL9QqpUuYzQOLzHj-12" value="结束" style="shape=hexagon;perimeter=hexagonPerimeter2;whiteSpace=wrap;html=1;fixedSize=1;" vertex="1" parent="1">
          <mxGeometry x="550" y="325" width="90" height="50" as="geometry" />
        </mxCell>
        <mxCell id="kJeDoL9QqpUuYzQOLzHj-16" value="" style="edgeStyle=orthogonalEdgeStyle;rounded=0;orthogonalLoop=1;jettySize=auto;html=1;" edge="1" parent="1" source="kJeDoL9QqpUuYzQOLzHj-14" target="kJeDoL9QqpUuYzQOLzHj-15">
          <mxGeometry relative="1" as="geometry" />
        </mxCell>
        <mxCell id="kJeDoL9QqpUuYzQOLzHj-14" value="centrum" style="whiteSpace=wrap;html=1;" vertex="1" parent="1">
          <mxGeometry x="730" y="30" width="120" height="60" as="geometry" />
        </mxCell>
        <mxCell id="kJeDoL9QqpUuYzQOLzHj-18" value="" style="edgeStyle=orthogonalEdgeStyle;rounded=0;orthogonalLoop=1;jettySize=auto;html=1;" edge="1" parent="1" source="kJeDoL9QqpUuYzQOLzHj-15" target="kJeDoL9QqpUuYzQOLzHj-17">
          <mxGeometry relative="1" as="geometry" />
        </mxCell>
        <mxCell id="kJeDoL9QqpUuYzQOLzHj-15" value="将msgPack放进队列" style="whiteSpace=wrap;html=1;" vertex="1" parent="1">
          <mxGeometry x="730" y="120" width="120" height="60" as="geometry" />
        </mxCell>
        <mxCell id="kJeDoL9QqpUuYzQOLzHj-20" value="" style="edgeStyle=orthogonalEdgeStyle;rounded=0;orthogonalLoop=1;jettySize=auto;html=1;" edge="1" parent="1" source="kJeDoL9QqpUuYzQOLzHj-17" target="kJeDoL9QqpUuYzQOLzHj-19">
          <mxGeometry relative="1" as="geometry" />
        </mxCell>
        <mxCell id="kJeDoL9QqpUuYzQOLzHj-27" value="" style="edgeStyle=orthogonalEdgeStyle;rounded=0;orthogonalLoop=1;jettySize=auto;html=1;" edge="1" parent="1" source="kJeDoL9QqpUuYzQOLzHj-17" target="kJeDoL9QqpUuYzQOLzHj-25">
          <mxGeometry relative="1" as="geometry" />
        </mxCell>
        <mxCell id="kJeDoL9QqpUuYzQOLzHj-17" value="packQueue" style="ellipse;whiteSpace=wrap;html=1;" vertex="1" parent="1">
          <mxGeometry x="730" y="210" width="120" height="60" as="geometry" />
        </mxCell>
        <mxCell id="kJeDoL9QqpUuYzQOLzHj-22" value="" style="edgeStyle=orthogonalEdgeStyle;rounded=0;orthogonalLoop=1;jettySize=auto;html=1;" edge="1" parent="1" source="kJeDoL9QqpUuYzQOLzHj-19" target="kJeDoL9QqpUuYzQOLzHj-21">
          <mxGeometry relative="1" as="geometry" />
        </mxCell>
        <mxCell id="kJeDoL9QqpUuYzQOLzHj-19" value="返回SUCCESS_FLAG给MTR" style="whiteSpace=wrap;html=1;" vertex="1" parent="1">
          <mxGeometry x="730" y="315" width="120" height="60" as="geometry" />
        </mxCell>
        <mxCell id="kJeDoL9QqpUuYzQOLzHj-21" value="结束" style="shape=hexagon;perimeter=hexagonPerimeter2;whiteSpace=wrap;html=1;fixedSize=1;" vertex="1" parent="1">
          <mxGeometry x="730" y="410" width="120" height="50" as="geometry" />
        </mxCell>
        <mxCell id="kJeDoL9QqpUuYzQOLzHj-26" value="" style="edgeStyle=orthogonalEdgeStyle;rounded=0;orthogonalLoop=1;jettySize=auto;html=1;" edge="1" parent="1" source="kJeDoL9QqpUuYzQOLzHj-23" target="kJeDoL9QqpUuYzQOLzHj-25">
          <mxGeometry relative="1" as="geometry" />
        </mxCell>
        <mxCell id="kJeDoL9QqpUuYzQOLzHj-23" value="DefaultFramePoolManagement类storeFrameThread线程" style="whiteSpace=wrap;html=1;" vertex="1" parent="1">
          <mxGeometry x="940" y="90" width="180" height="60" as="geometry" />
        </mxCell>
        <mxCell id="kJeDoL9QqpUuYzQOLzHj-28" style="edgeStyle=orthogonalEdgeStyle;rounded=0;orthogonalLoop=1;jettySize=auto;html=1;entryX=1;entryY=0.5;entryDx=0;entryDy=0;" edge="1" parent="1" source="kJeDoL9QqpUuYzQOLzHj-25" target="kJeDoL9QqpUuYzQOLzHj-21">
          <mxGeometry relative="1" as="geometry">
            <Array as="points">
              <mxPoint x="1030" y="435" />
            </Array>
          </mxGeometry>
        </mxCell>
        <mxCell id="kJeDoL9QqpUuYzQOLzHj-25" value="取出packQueue数据，将frame入库到GSMS_CENTRUM_FRAME、GSMS_CENTRUM_FRAME_CHANNEL" style="whiteSpace=wrap;html=1;" vertex="1" parent="1">
          <mxGeometry x="920" y="210" width="220" height="60" as="geometry" />
        </mxCell>
      </root>
    </mxGraphModel>
  </diagram>
</mxfile>
